# xmcd
#
# Track frame offsets:
# 150
# 1925
# 13077
# 27930
# 46770
# 51635
# 67222
# 85300
# 89695
# 107357
# 127050
# 131000
# 148537
# 168922
# 186550
#
# Disc length: 2742 seconds
#
#
# Revision: 2
# Processed by: cddbd v1.5.2PL0 Copyright (c) Steve Scherf et al.
# Submitted via: FreeRIP 2.951 
#
DISCID=d60ab40f
DTITLE=No I.D. - Accept Your Own and Be Yourself (The Black Album)
DYEAR=1997
DGENRE=Hip Hop
TTITLE0=Heat
TTITLE1=We Rock Like So (feat. Dug Infinite
TTITLE2=Fate or Destiny  (feat. Dug Infinite and Syndicate
TTITLE3=State to State  (feat. Dug Infinite and Common
TTITLE4=I'm Thinkin'
TTITLE5=Mega Live (That's the Joint)  Ft. Dug Infinite and Sydicate
TTITLE6=Sky's the Limit (Inf Mix)
TTITLE7=Dreams
TTITLE8=The Real Weight  Ft. Dug Infinite
TTITLE9=Jump On It Ft. Dug Infinite
TTITLE10=GEM
TTITLE11=Original Man Ft. Dug Infinite
TTITLE12=Pray for the Sinners Ft. Dug Infinite
TTITLE13=Sky's the Limit Ft. Dug Infinite
TTITLE14=Two Steps Behind Ft. Dug Infinite and Syndicate
EXTD=
EXTT0=
EXTT1=
EXTT2=
EXTT3=
EXTT4=
EXTT5=
EXTT6=
EXTT7=
EXTT8=
EXTT9=
EXTT10=
EXTT11=
EXTT12=
EXTT13=
EXTT14=
PLAYORDER=
